<svg width="17" height="18" viewBox="0 0 17 18" fill="none" xmlns="http://www.w3.org/2000/svg">
<path d="M1.78125 8.55452L7.52625 2.80869C7.93169 2.39865 8.41418 2.0728 8.94599 1.84989C9.47779 1.62698 10.0484 1.51139 10.6251 1.50978C11.2017 1.50817 11.773 1.62057 12.306 1.84052C12.839 2.06046 13.3233 2.38361 13.7311 2.79138C14.1388 3.19915 14.4619 3.6835 14.6817 4.21657C14.9016 4.74965 15.0139 5.32092 15.0122 5.89756C15.0106 6.47419 14.8949 7.04481 14.6719 7.57658C14.4489 8.10836 14.123 8.59081 13.7129 8.99619L7.08458 15.6254C6.53757 16.1724 5.79567 16.4797 5.02208 16.4797C4.2485 16.4797 3.50659 16.1724 2.95958 15.6254C2.41257 15.0783 2.10527 14.3364 2.10527 13.5629C2.10527 12.7893 2.41257 12.0474 2.95958 11.5004L9.58958 4.87202C9.86538 4.61051 10.2324 4.467 10.6124 4.47205C10.9924 4.4771 11.3555 4.63031 11.6242 4.89906C11.893 5.1678 12.0462 5.53085 12.0512 5.91088C12.0563 6.29091 11.9128 6.6579 11.6512 6.93369L5.90542 12.6787" stroke="#3A643B" stroke-width="2" stroke-linecap="round" stroke-linejoin="round"/>
</svg>
