<svg width="11" height="17" viewBox="0 0 11 17" fill="none" xmlns="http://www.w3.org/2000/svg">
<path d="M0.523823 4.48712C0.521342 4.54566 0.53086 4.60408 0.551792 4.6588C0.572725 4.71352 0.604628 4.76337 0.645542 4.80531C0.686456 4.84724 0.735515 4.88036 0.789702 4.90263C0.843889 4.9249 0.902059 4.93585 0.960635 4.93481H2.45595C2.70607 4.93481 2.90545 4.73 2.93807 4.48169C3.1012 3.29269 3.91682 2.42631 5.37045 2.42631C6.61382 2.42631 7.75207 3.048 7.75207 4.54331C7.75207 5.69425 7.0742 6.2235 6.00301 7.02825C4.7832 7.91456 3.81714 8.9495 3.88601 10.6297L3.89145 11.023C3.89335 11.1419 3.94193 11.2553 4.0267 11.3387C4.11147 11.4221 4.22564 11.4689 4.34457 11.4689H5.81451C5.93469 11.4689 6.04994 11.4211 6.13492 11.3362C6.2199 11.2512 6.26763 11.1359 6.26763 11.0157V10.8254C6.26763 9.52406 6.76245 9.14525 8.09826 8.13206C9.20207 7.29287 10.353 6.36125 10.353 4.40556C10.353 1.66688 8.04026 0.34375 5.5082 0.34375C3.21176 0.34375 0.69601 1.41312 0.523823 4.48712ZM3.34588 14.9326C3.34588 15.8986 4.1162 16.6127 5.17651 16.6127C6.28032 16.6127 7.03976 15.8986 7.03976 14.9326C7.03976 13.9321 6.27851 13.2288 5.1747 13.2288C4.1162 13.2288 3.34588 13.9321 3.34588 14.9326Z" fill="#3A643B"/>
</svg>
