<svg width="22" height="21" viewBox="0 0 22 21" fill="none" xmlns="http://www.w3.org/2000/svg">
<g clip-path="url(#clip0_2_18506)">
<g clip-path="url(#clip1_2_18506)">
<path d="M9.2644 2.8672C9.26432 3.11248 9.31255 3.35538 9.40635 3.58202C9.50014 3.80866 9.63766 4.01461 9.81104 4.18811C9.98443 4.36161 10.1903 4.49925 10.4169 4.59319C10.6435 4.68713 10.8863 4.73552 11.1316 4.7356C11.3769 4.73568 11.6198 4.68745 11.8464 4.59365C12.0731 4.49986 12.279 4.36234 12.4525 4.18896C12.626 4.01557 12.7637 3.80971 12.8576 3.58313C12.9515 3.35655 12.9999 3.11368 13 2.8684C13.0002 2.37303 12.8035 1.89788 12.4534 1.54749C12.1032 1.1971 11.6282 1.00016 11.1328 1C10.6374 0.999841 10.1623 1.19647 9.81189 1.54664C9.4615 1.89681 9.26456 2.37183 9.2644 2.8672Z" fill="#11161A"/>
<path d="M11.1308 11.1446C10.0996 11.1446 9.26365 10.3086 9.26365 9.27736C9.26365 8.24613 10.0996 7.41016 11.1308 7.41016C12.1621 7.41016 12.998 8.24613 12.998 9.27736C12.998 10.3086 12.1621 11.1446 11.1308 11.1446Z" fill="#11161A"/>
<path d="M11.1308 17.5567C10.0996 17.5567 9.26365 16.7207 9.26365 15.6895C9.26365 14.6582 10.0996 13.8223 11.1308 13.8223C12.1621 13.8223 12.998 14.6582 12.998 15.6895C12.998 16.7207 12.1621 17.5567 11.1308 17.5567Z" fill="#11161A"/>
</g>
</g>
<defs>
<clipPath id="clip0_2_18506">
<rect width="21" height="20" fill="white" transform="translate(0.5 0.109375)"/>
</clipPath>
<clipPath id="clip1_2_18506">
<rect width="21" height="20" fill="white" transform="translate(0.5 0.109375)"/>
</clipPath>
</defs>
</svg>
